PathFileType	4	(X/Y/Z)	C:/Users/beibeiliu/ov580/test_trc\sequence.26_training_dense_left.trc
DataRate	CameraRate	NumFrames	NumMarkers	Units	OrigDataRate	OrigDataStartFrame	OrigNumFrames
120	120	10	19	mm	120	301	400
Frame#	Time	ThumbCMC			ThumbMCP			ThumbIP			ThumbTip			IndexMCP			IndexPIP			IndexTip			MiddleMCP			MiddlePIP			MiddleTip			RingMCP			RingPIP			RingTip			PinkyMCP			PinkyPIP			PinkyTip			BackHand1			BackHand2			BackHand3	
		X0	Y0	Z0	X1	Y1	Z1	X2	Y2	Z2	X3	Y3	Z3	X4	Y4	Z4	X5	Y5	Z5	X6	Y6	Z6	X7	Y7	Z7	X8	Y8	Z8	X9	Y9	Z9	X10	Y10	Z10	X11	Y11	Z11	X12	Y12	Z12	X13	Y13	Z13	X14	Y14	Z14	X15	Y15	Z15	X16	Y16	Z16	X17	Y17	Z17	X18	Y18	Z18	
300	2.5	-200.884	4.56545	32.5772	-181.086	-9.43697	15.4647	-165.763	-16.944	4.47537	-150.362	-30.2713	-3.1532	-165.862	13.1164	-27.3877	-184.385	-5.32503	-34.7348	-200.252	3.44745	-10.3045	-180.368	23.9673	-35.9645	-201.597	4.92798	-37.2299	-206.7	10.3279	-6.82289	-187.224	37.4839	-41.135	-202.021	17.6395	-43.9413	-212.918	19.6814	-14.2493	-193.065	64.3599	-32.6375	-186.366	65.6953	-45.6746	-176.008	68.6648	-59.8522	-198.22	53.1708	9.4841	-209.611	52.6358	29.5989	-191.557	37.4963	27.3146	
301	2.50833	-194.845	9.85988	29.2092	-175.029	-4.834	15.257	-159.982	-14.159	5.82087	-146.486	-21.2195	-1.52653	-163.661	19.9112	-25.1986	-180.368	0.255536	-36.3005	-193.797	2.21	-8.64368	-178.372	29.7145	-33.9856	-201.149	7.67997	-34.7331	-205.74	16.3687	-6.65729	-186.849	39.8826	-38.1925	-204.836	19.2698	-44.074	-208.121	19.3102	-12.7263	-197.189	67.9845	-32.8695	-189.642	69.5812	-48.3783	-179.408	74.1863	-61.7594	-201.394	58.8906	7.02338	-212.85	56.6575	28.456	-188.19	39.8539	28.462	
302	2.51667	-189.469	13.3623	30.41	-169.132	1.58242	15.0579	-155.474	-2.94379	5.51639	-135.199	-10.958	-3.44698	-158.953	25.5197	-25.7912	-175.753	5.49145	-38.0337	-189.883	8.38871	-7.45314	-179.692	33.308	-37.9356	-196.903	9.67712	-35.1391	-200.628	15.2703	-6.47504	-188.877	43.0319	-43.5803	-204.168	22.1736	-44.8932	-208.148	22.534	-13.1141	-200.998	69.4907	-34.3185	-193.034	72.6867	-50.0339	-186.947	79.8414	-65.5134	-203.084	62.4814	6.74359	-217.433	59.5676	26.0061	-190.389	43.827	28.3622	
303	2.525	-187.321	22.0881	29.2295	-164.049	13.1397	15.0285	-149.662	11.6127	2.58134	-131.447	4.79639	-2.57535	-162.481	39.3068	-29.9443	-175.99	14.1273	-38.0987	-186.275	13.6801	-11.0298	-179.646	38.2206	-41.7276	-194.74	14.2972	-36.2539	-194.931	21.166	-5.72913	-196.043	49.8969	-43.2832	-198.354	23.2476	-44.2724	-205.956	23.6061	-15.8759	-208.367	69.7632	-35.2246	-205.179	75.9737	-56.27	-199.858	80.737	-68.1224	-206.61	66.7565	1.6657	-220.01	63.7326	23.3757	-192.875	52.8169	25.3159	
304	2.53333	-183.234	34.9156	26.2448	-159.672	27.3444	13.3304	-144.273	31.0727	-1.11952	-126.093	30.1148	-8.44891	-165.06	49.2557	-33.4323	-172.236	22.6395	-38.2454	-183.533	23.5895	-11.4711	-185.577	47.2136	-42.7136	-190.108	20.3043	-41.3031	-196.214	27.6738	-7.55916	-198.07	49.9538	-48.2504	-196.422	23.6095	-42.7433	-203.246	24.1837	-18.8199	-219.727	69.0983	-41.8814	-215.41	72.0321	-59.1851	-214.027	79.4465	-74.9662	-213.8	69.2322	2.74462	-221.293	61.7865	22.374	-192.514	61.8821	22.0134	
305	2.54167	-180.303	53.7573	22.1504	-161.604	49.776	7.72486	-140.606	55.5423	-4.41135	-123.728	57.5544	-12.4642	-166.552	60.375	-40.5594	-168.937	34.3195	-41.7394	-179.399	37.2076	-9.92555	-190.405	55.5251	-45.8651	-183.65	26.8107	-40.9614	-188.89	35.6533	-8.19048	-205.584	52.368	-50.8039	-198.681	26.9678	-47.4933	-197.545	30.1698	-18.1844	-232.606	62.1374	-42.789	-230.303	64.7658	-63.0628	-229.803	69.2978	-82.6679	-222.723	70.6498	-4.38187	-229.984	68.0641	16.4083	-201.7	73.5043	16.6038	
306	2.55	-183.034	64.4461	20.5942	-162.703	65.503	1.63524	-143.858	74.8972	-12.0182	-128.617	78.3995	-16.0503	-176.424	68.6313	-45.6513	-170.158	42.0784	-40.6438	-178.689	46.7009	-13.6941	-192.527	57.326	-49.8008	-181.461	31.9519	-40.1699	-187.992	44.353	-8.80351	-207.916	49.2232	-54.2826	-191.591	29.0433	-42.5738	-196.262	32.4179	-18.2798	-233.867	57.1474	-45.4735	-234.695	55.1081	-66.5634	-238.859	55.2687	-83.1962	-227.323	71.4387	-9.39037	-232.894	67.2436	14.6375	-210.434	79.843	9.40132	
307	2.55833	-183.817	76.2721	18.1359	-162.859	77.5159	2.89424	-150.677	85.3712	-14.1919	-135.64	94.0503	-23.6391	-180.117	74.5761	-49.0972	-169.588	48.9038	-43.1206	-179.269	51.9928	-16.4165	-195.01	56.3481	-51.47	-178.823	34.5218	-36.7971	-187.783	47.2598	-10.3984	-205.371	49.0154	-54.9758	-187.482	32.6964	-43.5257	-193.344	34.7718	-18.229	-237.173	47.2191	-48.4444	-236.969	45.5086	-64.9194	-241.088	43.3411	-85.7699	-232.463	65.9183	-11.1306	-234.233	66.249	11.6891	-213.497	84.2107	6.86022	
308	2.56667	-190.295	81.1599	11.1296	-169.807	85.0201	-1.00942	-155.12	95.7446	-15.9413	-143.936	102.191	-25.1394	-184.168	77.2906	-50.6571	-165.896	56.2628	-42.3193	-178.961	59.5655	-16.604	-196.834	58.2685	-53.1466	-175.673	41.3598	-39.8477	-186.405	48.2982	-11.0073	-206.489	44.1412	-54.8079	-186.346	32.0378	-43.5045	-188.753	41.6153	-19.0172	-236.985	39.0581	-44.3796	-237.054	33.9441	-66.296	-240.911	33.0068	-80.7597	-233.593	65.1174	-12.1518	-238.1	61.1364	11.1449	-221.043	81.4827	1.36745	
309	2.575	-195.28	86.0992	7.86046	-178.334	88.6884	-8.44029	-164.651	101.362	-24.278	-152.842	113.146	-34.1893	-190.428	78.0408	-52.8191	-171.155	57.3062	-44.8278	-180.424	63.9052	-16.7485	-196.298	58.909	-53.7034	-173.824	45.9308	-41.3059	-187.373	52.2617	-11.7222	-209.274	42.0174	-52.5812	-183.784	36.7689	-41.8274	-192.248	44.833	-14.548	-234.311	36.2301	-47.1944	-234.201	29.0162	-63.6209	-236.551	24.8084	-82.8264	-239.604	58.7428	-14.2397	-239.567	59.3688	13.5406	-226.974	81.9165	-2.98722	
